<svg id="Layer_1" data-name="Layer 1" xmlns="http://www.w3.org/2000/svg" viewBox="0 0 145.28 52.91"><defs><style>.cls-1{isolation:isolate;}.cls-2{fill:#101820;}.cls-3,.cls-4{fill:#a08f59;}.cls-3{fill-rule:evenodd;}</style></defs><title>logo</title><g class="cls-1"><path class="cls-2" d="M15.1,24.18l.08-.13h.59l-.2.39a8.19,8.19,0,0,1-6.71,3.74C4.55,28.18,1,24.26,1,19.35s3.51-8.84,7.82-8.84a7.85,7.85,0,0,1,6.65,3.77l.19.39h-.58l-.07-.13A7.28,7.28,0,0,0,8.86,11c-4,0-7.3,3.72-7.3,8.32s3.25,8.31,7.3,8.31A7.52,7.52,0,0,0,15.1,24.18Z"/><path class="cls-2" d="M17.65,28l0,.16H17l.16-.36,7.54-17.15a.26.26,0,0,1,.46,0l7.54,17.15.16.36H32.3l0-.16L25,11.42Z"/><path class="cls-2" d="M44.44,19.56c1.55,1.17,2.68,2.71,4.42,8.28l.1.34h-.54L48.34,28c-1.82-6-3-7.19-4.73-8.4H36.39v8.58h-.52v-8.6h0V10.8a.25.25,0,0,1,.26-.26l7.54,0c2.86,0,5.17,2.05,5.17,4.57A4.77,4.77,0,0,1,44.44,19.56Zm-1.61-.47h.88c2.52,0,4.63-1.77,4.63-4S46.23,11,43.69,11h-7.3v8.08Z"/></g><g class="cls-1"><path class="cls-2" d="M96.1,43.4l.08-.13h.59l-.2.39a8.19,8.19,0,0,1-6.71,3.74c-4.31,0-7.82-3.92-7.82-8.83s3.51-8.84,7.82-8.84a7.85,7.85,0,0,1,6.65,3.77l.19.39h-.58l-.07-.13a7.28,7.28,0,0,0-6.19-3.51c-4,0-7.3,3.72-7.3,8.32s3.25,8.31,7.3,8.31A7.52,7.52,0,0,0,96.1,43.4Z"/><path class="cls-2" d="M113.22,38.83V47.4h-.51V38.83h-12V47.4h-.52V29.73h.52v8.58h12V29.73h.51v9.1Z"/><path class="cls-2" d="M118.71,30v-.26h.52V47.4h-.52V30Z"/><path class="cls-2" d="M137.16,43.4l.08-.13h.6l-.21.39a8.16,8.16,0,0,1-6.7,3.74c-4.32,0-7.83-3.92-7.83-8.83s3.51-8.84,7.83-8.84a7.87,7.87,0,0,1,6.65,3.77l.18.39h-.57l-.08-.13a7.27,7.27,0,0,0-6.18-3.51c-4.06,0-7.31,3.72-7.31,8.32s3.25,8.31,7.31,8.31A7.51,7.51,0,0,0,137.16,43.4Z"/></g><g class="cls-1"><path class="cls-2" d="M72,19.4a4.6,4.6,0,0,1,3.88,4.32A4.71,4.71,0,0,1,71,28.14h-7.3a.24.24,0,0,1-.26-.26c0-2.69,0-5.39,0-8.08h0V11.27A.24.24,0,0,1,63.7,11l6.22,0a4.71,4.71,0,0,1,4.93,4.42A4.42,4.42,0,0,1,72,19.4ZM64,19.33l6,0a4.2,4.2,0,0,0,4.41-3.9,4.19,4.19,0,0,0-4.41-3.9h-6Zm0,.49q0,3.91,0,7.83l7,0a4.18,4.18,0,0,0,4.39-3.9A4.19,4.19,0,0,0,71,19.82H64Z"/><path class="cls-2" d="M88.65,19.4a4.6,4.6,0,0,1,3.88,4.32,4.71,4.71,0,0,1-4.92,4.42h-7.3a.25.25,0,0,1-.26-.26c0-2.69,0-5.39,0-8.08h0l0-.25V11.27a.24.24,0,0,1,.26-.25l6.21,0a4.71,4.71,0,0,1,4.94,4.42A4.44,4.44,0,0,1,88.65,19.4Zm-8.07-.07,6,0A4.21,4.21,0,0,0,91,15.41a4.2,4.2,0,0,0-4.42-3.9h-6Zm0,.49c0,2.61,0,5.22,0,7.83l7,0a4.19,4.19,0,0,0,4.4-3.9,4.2,4.2,0,0,0-4.4-3.9h-7Z"/><path class="cls-2" d="M108.64,10.73h.26v.52H97v8.06h8.75v.51H97v8.06h12v.52H96.69a.24.24,0,0,1-.26-.26V11a.24.24,0,0,1,.26-.26Z"/><path class="cls-2" d="M111.47,28.24l0,.16h-.57L111,28l7.53-17.15a.27.27,0,0,1,.47,0L126.55,28l.15.36h-.57l0-.16-7.3-16.6Z"/><path class="cls-2" d="M130.21,28.14v.26h-.52V11a.27.27,0,0,1,.47-.16l12,16.5,0-16.34v-.26h.52V11l0,17.15a.27.27,0,0,1-.47.16l-12-16.5Z"/></g><path class="cls-3" d="M55.61,7.16C52.55,5.86,47.7,6.91,47,8.87a2.71,2.71,0,0,1,.57-.6,2.16,2.16,0,0,0-.21.71l.3-.68a3.57,3.57,0,0,0,0,.8,3.21,3.21,0,0,0,.1-.62,2.07,2.07,0,0,1,.05.5,2.5,2.5,0,0,0,.15-.38,3.23,3.23,0,0,1,0,.44,3.35,3.35,0,0,0,.2-.61A2.32,2.32,0,0,0,48.2,9a2.44,2.44,0,0,0,.19-.84,3.47,3.47,0,0,0,.07.79.93.93,0,0,0,.12-.46,1.65,1.65,0,0,0,.06.32A2.8,2.8,0,0,0,48.77,8a6.11,6.11,0,0,0,.09.86A3.16,3.16,0,0,1,49,8.08a2.06,2.06,0,0,0,0,.7,2.78,2.78,0,0,1,.2-.95,4,4,0,0,0,.07.92,3.16,3.16,0,0,1,.16-1.1,1.82,1.82,0,0,0,.2,1,1.28,1.28,0,0,1,.06-.82,2.12,2.12,0,0,0,0,.71A1.68,1.68,0,0,1,49.74,8a3.71,3.71,0,0,0,.11.58,4.18,4.18,0,0,1,0-1,3.75,3.75,0,0,0,.18,1,3.58,3.58,0,0,1,.09-1.13,2.66,2.66,0,0,0,.32,1.06,1.57,1.57,0,0,1,0-.53,2.09,2.09,0,0,0,.11.43,1.58,1.58,0,0,1,.08-.57,3.66,3.66,0,0,1,.17.65,2.48,2.48,0,0,0,0-.86,1.58,1.58,0,0,1,.12.52,2.64,2.64,0,0,0,.14-.84,3.46,3.46,0,0,0,.23,1,1.51,1.51,0,0,1,.07-.55,2,2,0,0,0,.09.33,2.65,2.65,0,0,0,.16-.73,2.4,2.4,0,0,0,.27.9,2.61,2.61,0,0,0,0-.48A.51.51,0,0,0,52,8c0-.21,0-.43,0-.64a4.4,4.4,0,0,0,.22.81,1.57,1.57,0,0,0,0-.53,1.06,1.06,0,0,0,.13.39,6.61,6.61,0,0,0,0-.89,5.6,5.6,0,0,0,.3.81,3.84,3.84,0,0,0,0-.48,2.78,2.78,0,0,0,.17.51,2.9,2.9,0,0,0-.1-.88,3.5,3.5,0,0,0,.32.71,5,5,0,0,0-.17-.55,5.24,5.24,0,0,0,.34.61,6,6,0,0,0,0-.85,4.58,4.58,0,0,0,.18.73,1.93,1.93,0,0,0,0-.48,5,5,0,0,0,.16.51,4.81,4.81,0,0,0-.1-.85,5,5,0,0,1,.34.83,4.34,4.34,0,0,0-.09-.52,1.43,1.43,0,0,1,.19.44,3.22,3.22,0,0,0,0-.76,3.64,3.64,0,0,1,.26.72,4.43,4.43,0,0,0-.06-.51,1.38,1.38,0,0,1,.18.39,1.21,1.21,0,0,0,0-.38,1.24,1.24,0,0,1,.19.36,2,2,0,0,0-.13-.53,2.58,2.58,0,0,1,.29.51A2.36,2.36,0,0,0,54.56,7a5,5,0,0,1,.92.32l.16-.07a.29.29,0,0,1,0-.13Z"/><path class="cls-3" d="M55.48,7.19c-2.1-3.32-6.38-4.76-6.76-1.08a5.43,5.43,0,0,1,.4-.93,3,3,0,0,0-.23.88,7,7,0,0,0,.37-1,3.7,3.7,0,0,1-.1.58,8.77,8.77,0,0,0,.4-1.12,10.28,10.28,0,0,0-.21,1.08l.23-.8a4.31,4.31,0,0,1-.1.61,2.72,2.72,0,0,1,.33-.66,1.57,1.57,0,0,0,0,.61A1.45,1.45,0,0,1,50,4.75a1.73,1.73,0,0,1,.12.78A2.1,2.1,0,0,0,50.25,5a2.71,2.71,0,0,1,0,.57,1,1,0,0,0,.07-.29,1.23,1.23,0,0,0,.08.38,1.24,1.24,0,0,1,.24-.58,1.34,1.34,0,0,0-.16.56,1.31,1.31,0,0,1,.58-.75,1.76,1.76,0,0,1-.15.64,2,2,0,0,0,.38-.69,2.9,2.9,0,0,1-.12.57A1.47,1.47,0,0,0,51.6,5a1.22,1.22,0,0,1-.18.36.84.84,0,0,0,.27-.26,1.36,1.36,0,0,0-.07.53,1.56,1.56,0,0,1,.32-.52,3.09,3.09,0,0,0,0,.43A1,1,0,0,0,52,5.16a.92.92,0,0,1,0,.33,1.68,1.68,0,0,0,.09-.32,1.19,1.19,0,0,1,0,.53,2.41,2.41,0,0,0,.16-.54.93.93,0,0,1,.1.59,2.19,2.19,0,0,0,.34-.64,2.44,2.44,0,0,1-.23.69,1.69,1.69,0,0,0,.21-.31.92.92,0,0,1-.13.36,1,1,0,0,0,.37-.51,1.47,1.47,0,0,1-.07.59.85.85,0,0,0,.3-.4,1.42,1.42,0,0,1-.11.35l.18-.26a1.85,1.85,0,0,0,0,.47,2.14,2.14,0,0,1,.23-.38,1,1,0,0,0-.07.45,1.38,1.38,0,0,1,.37-.52.83.83,0,0,1-.07.58A.63.63,0,0,0,54,5.89a1.46,1.46,0,0,1,0,.51,1.41,1.41,0,0,0,.17-.32,1.19,1.19,0,0,1-.11.42,1.24,1.24,0,0,0,.29-.39,1.62,1.62,0,0,0-.07.58,1.2,1.2,0,0,1,.2-.41.71.71,0,0,0,0,.29.91.91,0,0,1,.17-.34,10.34,10.34,0,0,1,.89,1.2s.08-.25.1-.29Z"/><path class="cls-3" d="M54.82,7.9c.64-4.36,4.66-7.74,7-4a9.39,9.39,0,0,0-.94-.84,4.56,4.56,0,0,1,.73.85A11,11,0,0,1,60.67,3a4.83,4.83,0,0,0,.43.58,11.8,11.8,0,0,1-1-1c.29.35.55.71.8,1.08-.22-.26-.45-.52-.68-.77l.43.61A3.11,3.11,0,0,0,59.93,3a2.22,2.22,0,0,1,.38.65A2.06,2.06,0,0,0,59.76,3a2,2,0,0,0,.28.89,2.54,2.54,0,0,1-.44-.54,3.46,3.46,0,0,0,.28.62,1.09,1.09,0,0,1-.23-.29,1.13,1.13,0,0,1,.1.44,1.7,1.7,0,0,0-.57-.53,1.87,1.87,0,0,1,.47.54,1.72,1.72,0,0,0-1-.57,2.13,2.13,0,0,0,.51.61,2.61,2.61,0,0,1-.79-.57,3.2,3.2,0,0,0,.42.55,2.09,2.09,0,0,1-.71-.29,1.38,1.38,0,0,0,.4.32A1.12,1.12,0,0,1,58,4a2.32,2.32,0,0,1,.35.53,2,2,0,0,0-.63-.43,2.94,2.94,0,0,1,.25.46,1.81,1.81,0,0,1-.29-.33,1.46,1.46,0,0,0,.16.36,1.14,1.14,0,0,1-.27-.31,1.47,1.47,0,0,0,.31.56,3.23,3.23,0,0,1-.46-.52,1,1,0,0,0,.2.67,2.8,2.8,0,0,1-.73-.55,3.82,3.82,0,0,0,.62.65,2,2,0,0,1-.39-.25,1.3,1.3,0,0,0,.32.34,1.54,1.54,0,0,1-.68-.41,1.8,1.8,0,0,0,.4.61,1.37,1.37,0,0,1-.56-.32,1.87,1.87,0,0,0,.3.33l-.34-.21a2.25,2.25,0,0,1,.29.5,4.87,4.87,0,0,0-.47-.32,1.65,1.65,0,0,1,.32.46,1.74,1.74,0,0,0-.69-.41,1.1,1.1,0,0,0,.38.59,1,1,0,0,1-.5-.23,1.48,1.48,0,0,0,.29.52,1.22,1.22,0,0,1-.36-.27,1.64,1.64,0,0,0,.34.4,1.62,1.62,0,0,1-.53-.29,1.62,1.62,0,0,1,.38.59,2.6,2.6,0,0,0-.43-.38,1,1,0,0,1,.19.3,1.31,1.31,0,0,0-.36-.3A10.26,10.26,0,0,0,55.07,8l-.2-.11Z"/><path class="cls-3" d="M55.13,6.94c2.51-1.81,7.16-1.83,8.24-.19a2.16,2.16,0,0,0-.65-.43,2,2,0,0,1,.34.6l-.42-.55a3.58,3.58,0,0,1,.2.71,3.49,3.49,0,0,1-.22-.53,1.76,1.76,0,0,0,.06.46,1.66,1.66,0,0,1-.22-.32,1.76,1.76,0,0,0,.07.4,2.62,2.62,0,0,1-.3-.51,2.05,2.05,0,0,1,.05.55,2.73,2.73,0,0,1-.34-.71,3,3,0,0,1,.1.72.81.81,0,0,1-.2-.39v.31a2.94,2.94,0,0,1-.3-.76,4.27,4.27,0,0,1,.1.8,3.21,3.21,0,0,0-.26-.67,2.88,2.88,0,0,1,.13.65,2.73,2.73,0,0,0-.38-.83,3.58,3.58,0,0,1,.13.86,3.28,3.28,0,0,0-.38-1,1.7,1.7,0,0,1,0,1,1.19,1.19,0,0,0-.22-.73,1.85,1.85,0,0,1,.09.66,1.24,1.24,0,0,0-.18-.53,5,5,0,0,1,0,.55,5.54,5.54,0,0,0-.23-.89,4.18,4.18,0,0,1,0,1,3.16,3.16,0,0,0-.32-1,2.82,2.82,0,0,1-.06,1,2,2,0,0,0-.08-.48,2.81,2.81,0,0,1,0,.41,1.84,1.84,0,0,0-.19-.51,2.22,2.22,0,0,0,0,.63,2.5,2.5,0,0,1-.2-.77,2,2,0,0,0,0,.49,2.5,2.5,0,0,1-.3-.74,3.35,3.35,0,0,1,0,1c-.06-.14-.12-.3-.18-.47a.86.86,0,0,1,0,.32,2.56,2.56,0,0,1-.29-.63,2.48,2.48,0,0,1-.06.86,2.23,2.23,0,0,1-.16-.43.67.67,0,0,1,0,.2,5.5,5.5,0,0,1-.16-.58,5.08,5.08,0,0,1,0,.78,2,2,0,0,1-.15-.47,1.15,1.15,0,0,1,0,.37,5.77,5.77,0,0,1-.2-.82,3.58,3.58,0,0,1-.1.8,1.64,1.64,0,0,1-.09-.44,2.07,2.07,0,0,1-.06.5,3.75,3.75,0,0,1-.09-.82,3.43,3.43,0,0,1-.14.71,4.69,4.69,0,0,1,0-.53,2.11,2.11,0,0,1-.17.62,7.09,7.09,0,0,1-.14-.78,4.09,4.09,0,0,1,0,.7,1.67,1.67,0,0,1-.11-.44,4.17,4.17,0,0,1,0,.5,5.57,5.57,0,0,1-.1-.82,7.37,7.37,0,0,0-.13.82,2,2,0,0,1,0-.49,1.56,1.56,0,0,0-.08.43,2.7,2.7,0,0,1-.12-.69,4.06,4.06,0,0,0-.09.7,1.85,1.85,0,0,1,0-.47,1,1,0,0,0-.08.39.8.8,0,0,1-.07-.34.89.89,0,0,0-.11.36,2.18,2.18,0,0,1,0-.51,3.24,3.24,0,0,0-.16.53,2.94,2.94,0,0,1,0-.42,4.12,4.12,0,0,0-.77.48h-.16V7Z"/><path class="cls-3" d="M55.35,6.85c-1.59,1.31-1.51,6.51-.11,8.2a6.83,6.83,0,0,1-.49-1.67,1,1,0,0,0,.38.48,3.85,3.85,0,0,1-.28-1.25,4.33,4.33,0,0,0,.52,1A5.23,5.23,0,0,1,55,12.33a1.51,1.51,0,0,0,.6.46,2.18,2.18,0,0,1-.41-.87l.27.33c-.13-.32-.27-.64-.4-1a2.09,2.09,0,0,0,.48.41,3.28,3.28,0,0,1-.48-1.12l.44.63-.41-.87a4.38,4.38,0,0,0,.79.82A4.2,4.2,0,0,1,55,9.5l.46.57L55,9c.21.25.37.42.5.56a3.44,3.44,0,0,1-.37-1.12l.35.51c-.12-.42-.25-.83-.37-1.23l.3.84c-.08-.36-.15-.71-.23-1.07l.24.66c-.1-.57,0-.93.23-1.11l-.3-.24Z"/><path class="cls-3" d="M55.41,6.9C54,3,51,.2,50.78,3.77A4.5,4.5,0,0,1,51,3a3.62,3.62,0,0,0-.15.81,6.36,6.36,0,0,0,.25-.85,5.35,5.35,0,0,1-.07.56c.1-.33.19-.66.26-1-.06.36-.11.71-.14,1a3.39,3.39,0,0,1,.16-.74,1.71,1.71,0,0,1-.07.59,2,2,0,0,1,.21-.57,3,3,0,0,0,0,.6,1.81,1.81,0,0,1,.12-.56,2.83,2.83,0,0,1,.09.82,3,3,0,0,0,.08-.51,5.42,5.42,0,0,1,0,.57,1.22,1.22,0,0,0,0-.27,1.34,1.34,0,0,0,0,.4A1.09,1.09,0,0,1,52,3.33a1.56,1.56,0,0,0-.11.52.72.72,0,0,1,.38-.59,1.7,1.7,0,0,1-.1.59,1.33,1.33,0,0,0,.25-.57,3.07,3.07,0,0,1-.07.53.76.76,0,0,0,.28-.31,1,1,0,0,1-.12.32.41.41,0,0,0,.18-.19,2.17,2.17,0,0,0,0,.51,1,1,0,0,1,.21-.43,2.94,2.94,0,0,0,0,.42A1.55,1.55,0,0,0,53,3.82a1.82,1.82,0,0,1,0,.33A1.36,1.36,0,0,0,53,3.86a1.51,1.51,0,0,1,0,.52,2.66,2.66,0,0,0,.1-.49,1.4,1.4,0,0,1,.07.61A1.58,1.58,0,0,0,53.4,4a2.25,2.25,0,0,1-.15.62.72.72,0,0,0,.14-.24,1.16,1.16,0,0,1-.08.32.7.7,0,0,0,.23-.41,1.37,1.37,0,0,1,0,.57.57.57,0,0,0,.2-.32,1.14,1.14,0,0,1-.07.32l.12-.21a3.69,3.69,0,0,0,0,.47,1.87,1.87,0,0,1,.15-.32,1.55,1.55,0,0,0,0,.43,1.14,1.14,0,0,1,.24-.41,1.06,1.06,0,0,1,0,.56.47.47,0,0,0,.19-.25,2.09,2.09,0,0,1,0,.5.81.81,0,0,0,.11-.27,1,1,0,0,1-.07.38.73.73,0,0,0,.19-.3,2.62,2.62,0,0,0,0,.56,2.53,2.53,0,0,1,.12-.36,1.31,1.31,0,0,0,0,.28,1,1,0,0,1,.1-.29A15.18,15.18,0,0,1,55.41,7a1.33,1.33,0,0,0,.26-.11Z"/><path class="cls-3" d="M55.08,6.93c-1-5-.13-9.32,2.08-5.43a7.37,7.37,0,0,0-.68-.8,5.6,5.6,0,0,1,.59.85c-.22-.24-.45-.54-.69-.85.12.21.25.41.37.59a10.73,10.73,0,0,1-.78-1c.25.38.49.75.69,1.09-.19-.25-.37-.51-.55-.76.13.21.26.42.38.63A2.67,2.67,0,0,0,56,.69a4.38,4.38,0,0,1,.37.67,2.39,2.39,0,0,0-.42-.58,4.51,4.51,0,0,0,.39,1A3.17,3.17,0,0,1,56,1.24c.1.23.2.44.31.65-.06-.09-.12-.17-.19-.29a3.8,3.8,0,0,1,.18.47,1.88,1.88,0,0,0-.42-.51,3.29,3.29,0,0,1,.38.54c-.18-.27-.5-.52-.65-.5a3.17,3.17,0,0,0,.41.62,2.26,2.26,0,0,1-.53-.54q.18.3.36.57A1,1,0,0,1,55.41,2a2,2,0,0,0,.28.3.51.51,0,0,1-.26-.14,3.08,3.08,0,0,1,.33.55,1.73,1.73,0,0,0-.42-.39c.1.17.18.32.25.47a1.5,1.5,0,0,1-.23-.33,2.64,2.64,0,0,0,.18.38,1.61,1.61,0,0,1-.21-.3,3.1,3.1,0,0,0,.3.57,4.67,4.67,0,0,1-.36-.51,2.65,2.65,0,0,0,.29.72,2,2,0,0,1-.49-.51,5,5,0,0,0,.47.64l-.25-.22a1.31,1.31,0,0,0,.25.32.89.89,0,0,1-.43-.36,3,3,0,0,0,.36.63.87.87,0,0,1-.35-.28,2,2,0,0,0,.24.33l-.22-.19a5.21,5.21,0,0,1,.28.52,2.76,2.76,0,0,0-.3-.29,2.18,2.18,0,0,1,.28.46A1.1,1.1,0,0,0,55,4a2.06,2.06,0,0,0,.35.61.52.52,0,0,1-.3-.2,2.86,2.86,0,0,0,.3.54.72.72,0,0,1-.25-.24,2.7,2.7,0,0,0,.27.39A1.15,1.15,0,0,1,55,4.88a2.77,2.77,0,0,1,.35.6,2,2,0,0,0-.3-.35,1.49,1.49,0,0,1,.18.3A1.37,1.37,0,0,0,55,5.15c.08.61.19,1.2.32,1.87h-.21Z"/><path class="cls-3" d="M55.3,7.18c-1.87-1.58-4.3.19-3.5,4a8,8,0,0,0-.06-1.2,8.28,8.28,0,0,0,.13,1,6.36,6.36,0,0,0-.08-1.22c.05.22.08.44.11.66,0-.45-.07-.93-.11-1.4.06.44.12.87.19,1.21,0-.32-.08-.64-.11-1L52,9.9A6.61,6.61,0,0,1,52,9a3.4,3.4,0,0,0,.15.63,3.82,3.82,0,0,1-.08-.75,2,2,0,0,1,.27.66,1.68,1.68,0,0,0-.08-.63c.06.17.11.35.16.54a1.82,1.82,0,0,0,0-.33,1.11,1.11,0,0,0,.14.29,2.3,2.3,0,0,1,0-.74,3,3,0,0,0,.07.67,3.62,3.62,0,0,1,.08-1.18,4.41,4.41,0,0,1,.09.73,7.37,7.37,0,0,0,0-.94,5.12,5.12,0,0,0,.1.63A4.53,4.53,0,0,0,53,7.85a3.84,3.84,0,0,1,0,.48A1.74,1.74,0,0,0,53,7.88a2.64,2.64,0,0,0,.11.56,3.14,3.14,0,0,1,0-.75,1.51,1.51,0,0,0,.1.43,2.67,2.67,0,0,0,0-.4,1.58,1.58,0,0,1,.09.31,2.29,2.29,0,0,0,0-.37,2.42,2.42,0,0,1,.13.53,4.62,4.62,0,0,0-.08-.65.93.93,0,0,1,.21.5,6.61,6.61,0,0,0,0-.89,8,8,0,0,1,.08.84,3.38,3.38,0,0,0,0-.45,1.62,1.62,0,0,1,0,.44,2.49,2.49,0,0,0,0-.77,2.21,2.21,0,0,1,.13.63,2.22,2.22,0,0,0,0-.63,2.94,2.94,0,0,1,0,.42V7.24a3.88,3.88,0,0,0,.11.49V7.17a1.37,1.37,0,0,0,.09.49,3.39,3.39,0,0,1,0-.78,1.58,1.58,0,0,1,.12.61,1.63,1.63,0,0,0,0-.54,2.15,2.15,0,0,1,.12.5,3.09,3.09,0,0,0,0-.43,3.93,3.93,0,0,1,.06.48,2.91,2.91,0,0,0,0-.59,2.55,2.55,0,0,0,.13.61,5,5,0,0,1,0-.55,1.55,1.55,0,0,0,.06.31,1.7,1.7,0,0,1,0-.45,3,3,0,0,1,.74.47V7.08Z"/><path class="cls-3" d="M55.33,6.64c-3.25-.93-7.47,1.68-6.08,5.25a7.72,7.72,0,0,1-.1-1.18,3.15,3.15,0,0,0,.22,1,8.2,8.2,0,0,0-.14-1.19,4.44,4.44,0,0,1,.19.62,12.38,12.38,0,0,0-.2-1.36c.11.42.22.82.33,1.14L49.37,10c.07.21.13.42.2.63a3.24,3.24,0,0,1,0-.88,1.71,1.71,0,0,0,.25.57,1.94,1.94,0,0,1-.13-.71,1.28,1.28,0,0,1,.47.56,3.1,3.1,0,0,0-.15-.6,3,3,0,0,1,.28.49,1.16,1.16,0,0,0-.08-.32.82.82,0,0,0,.24.25,1.63,1.63,0,0,1-.08-.73,1.57,1.57,0,0,0,.14.64,2.24,2.24,0,0,1,.12-1.2,1.89,1.89,0,0,1,.17.7,3.78,3.78,0,0,0,0-1,4.44,4.44,0,0,1,.16.6,3.39,3.39,0,0,0,.15-.77,1.93,1.93,0,0,1,0,.48,1.58,1.58,0,0,0,.1-.48,1.6,1.6,0,0,0,.19.53,2.36,2.36,0,0,1,0-.75,1.38,1.38,0,0,0,.18.39,1.23,1.23,0,0,0-.08-.38.61.61,0,0,1,.16.28A.94.94,0,0,0,51.59,8a1.09,1.09,0,0,1,.22.49,3.24,3.24,0,0,0-.12-.62.63.63,0,0,1,.36.42,4.31,4.31,0,0,0,0-.88,3.26,3.26,0,0,1,.13.82,1.77,1.77,0,0,0,0-.46,2,2,0,0,1,.07.43,2.1,2.1,0,0,0,0-.79,1.32,1.32,0,0,1,.22.58,1.72,1.72,0,0,0,0-.64,1.42,1.42,0,0,1,.08.41v-.4a1.49,1.49,0,0,0,.19.45,5,5,0,0,1,0-.55,1.25,1.25,0,0,0,.15.46A2.15,2.15,0,0,1,53,6.9a.87.87,0,0,1,.22.57,1.29,1.29,0,0,0,.08-.55,1,1,0,0,1,.21.46,1.09,1.09,0,0,0,0-.44,1.8,1.8,0,0,1,.1.46,2,2,0,0,0,.06-.6,1.41,1.41,0,0,0,.21.56,2.44,2.44,0,0,1,0-.54.65.65,0,0,0,.11.29,1.09,1.09,0,0,1,0-.44,5.61,5.61,0,0,1,1.29.21V6.66Z"/><path class="cls-3" d="M55,6.81c1.9,0,4.44,4.32,3.71,7.83V13.36a5.57,5.57,0,0,1-.11,1,9,9,0,0,1,.06-1.27,4.22,4.22,0,0,0-.1.62c0-.48.05-1,.08-1.44-.05.42-.1.84-.17,1.16l.09-1a4.58,4.58,0,0,1-.1.63,8.34,8.34,0,0,0,0-1,2.17,2.17,0,0,1-.13.56,4.82,4.82,0,0,0,0-.76.79.79,0,0,0-.26.48,4.2,4.2,0,0,1,.08-.62,2.28,2.28,0,0,0-.15.44,1.82,1.82,0,0,1,0-.33.34.34,0,0,1-.13.2,3.31,3.31,0,0,0,0-.77,3,3,0,0,1-.07.66,4.85,4.85,0,0,0-.1-1.37,2.81,2.81,0,0,0-.08.71,5.57,5.57,0,0,1,0-1,4.07,4.07,0,0,0-.08.61,5.53,5.53,0,0,1-.11-.9,2.35,2.35,0,0,0,0,.53,3.7,3.7,0,0,1-.07-.57,1.84,1.84,0,0,1-.1.52,3.93,3.93,0,0,0,0-.84,1.64,1.64,0,0,1-.1.38v-.4a.62.62,0,0,0-.09.26,1.21,1.21,0,0,1,0-.38,1.25,1.25,0,0,0-.12.46A3.47,3.47,0,0,1,57,9.29c-.09,0-.18.11-.2.35a5.57,5.57,0,0,1,0-1,4.1,4.1,0,0,0-.06.86,2.26,2.26,0,0,1,0-.52,3.38,3.38,0,0,0,0,.45,4.31,4.31,0,0,1,0-.88,1.39,1.39,0,0,0-.12.57,4.45,4.45,0,0,1,0-.73,3.09,3.09,0,0,0,0,.43V8.37a2.09,2.09,0,0,1-.11.43V8.19a1.44,1.44,0,0,1-.08.46,4.61,4.61,0,0,0,0-.91,1,1,0,0,0-.11.56,3.48,3.48,0,0,1-.07-.64,1.36,1.36,0,0,0-.11.44,3.84,3.84,0,0,1,0-.48,3.84,3.84,0,0,0,0,.48q0-.34,0-.69A1.81,1.81,0,0,1,56,8a2.91,2.91,0,0,0,0-.59,1.41,1.41,0,0,1,0,.29,2,2,0,0,0,0-.49A1.92,1.92,0,0,0,55.27,7V6.74Z"/><path class="cls-3" d="M55.37,6.82c1.49-.66,5.05,1.75,5.76,4.76a9.8,9.8,0,0,0-.44-1,4.8,4.8,0,0,1,.29.83c-.16-.33-.29-.67-.43-1a4.48,4.48,0,0,0,.16.52c-.18-.38-.32-.77-.47-1.16.12.35.23.7.3,1L60.25,10l.15.53a7.43,7.43,0,0,0-.35-.76,1.64,1.64,0,0,1,.1.49,3.56,3.56,0,0,0-.23-.62.76.76,0,0,0,0,.47,3.39,3.39,0,0,1-.17-.51,1.41,1.41,0,0,0,0,.41,1.43,1.43,0,0,1-.09-.27.34.34,0,0,1,0,.2,2.81,2.81,0,0,0-.26-.62,2.47,2.47,0,0,1,.19.54,4.35,4.35,0,0,0-.58-1,2.57,2.57,0,0,0,.2.59,5.08,5.08,0,0,1-.4-.81,1.92,1.92,0,0,0,.15.51,6.68,6.68,0,0,1-.41-.67,3,3,0,0,0,.19.41c-.1-.15-.19-.28-.26-.41a1.69,1.69,0,0,1,.12.44,4.41,4.41,0,0,0-.33-.65.75.75,0,0,0,.06.33,1.75,1.75,0,0,1-.12-.32.45.45,0,0,0,0,.23,1.15,1.15,0,0,1-.11-.31,1.14,1.14,0,0,0,.07.41A3.35,3.35,0,0,1,58,8.07a.36.36,0,0,0,0,.35,5.17,5.17,0,0,1-.36-.75,4.12,4.12,0,0,0,.27.69A3.72,3.72,0,0,1,57.68,8a2.67,2.67,0,0,0,.14.36,2.89,2.89,0,0,1-.36-.67,1.18,1.18,0,0,0,.12.49,3.06,3.06,0,0,1-.31-.56,2.09,2.09,0,0,0,.13.35l-.18-.34a1.59,1.59,0,0,1,.07.38,3.58,3.58,0,0,0-.24-.48,1.34,1.34,0,0,1,.11.39,4.58,4.58,0,0,0-.37-.69,1,1,0,0,0,.11.48,2.31,2.31,0,0,1-.28-.48,1.34,1.34,0,0,0,.07.39,2.53,2.53,0,0,1-.18-.37,3,3,0,0,0,.14.39,5.39,5.39,0,0,1-.3-.52,1.31,1.31,0,0,1,.12.47,3.76,3.76,0,0,0-.2-.46,1,1,0,0,1,.06.25A2.76,2.76,0,0,0,56.15,7a1.65,1.65,0,0,0-.65.14,1.28,1.28,0,0,1-.11-.2Z"/><path class="cls-3" d="M54.62,7.25a.24.24,0,0,0,.1-.47.17.17,0,0,0-.1,0,.23.23,0,0,0-.23.23h0a.23.23,0,0,0,.23.23Z"/><path class="cls-3" d="M54.82,7a.23.23,0,0,0,.23-.23h0a.23.23,0,0,0-.22-.24h0a.24.24,0,0,0-.1.47Z"/><path class="cls-3" d="M54.38,6.71a.24.24,0,1,0-.24-.24h0A.24.24,0,0,0,54.38,6.71Z"/><path class="cls-3" d="M55,6.46a.23.23,0,0,0,.24-.22h0a.24.24,0,1,0-.48,0,.23.23,0,0,0,.23.23Z"/><path class="cls-3" d="M54.67,6.82a.24.24,0,0,0,0-.47.24.24,0,0,0-.1.47Z"/><path class="cls-3" d="M54.65,6.33a.24.24,0,1,0-.24-.24A.24.24,0,0,0,54.65,6.33Z"/><path class="cls-3" d="M55.29,6.7a.24.24,0,1,0,0-.48h0a.24.24,0,0,0,0,.48Z"/><path class="cls-3" d="M55.22,6.16a.23.23,0,0,0,.23-.23h0a.23.23,0,0,0-.23-.23h0a.23.23,0,0,0-.24.22h0A.24.24,0,0,0,55.22,6.16Z"/><path class="cls-3" d="M55.69,6.82a.24.24,0,1,0-.24-.24h0A.24.24,0,0,0,55.69,6.82Z"/><path class="cls-3" d="M55.29,6.46a.24.24,0,0,0,.24-.24A.23.23,0,0,0,55.3,6h0a.23.23,0,0,0-.23.23h0a.23.23,0,0,0,.22.24Z"/><path class="cls-3" d="M55.85,6.47a.23.23,0,0,0,.23-.23h0A.23.23,0,0,0,55.85,6h0a.23.23,0,0,0-.24.22h0A.24.24,0,0,0,55.85,6.47Z"/><path class="cls-3" d="M56,6.79a.24.24,0,0,0,.1-.47.17.17,0,0,0-.1,0,.23.23,0,0,0-.23.23h0a.23.23,0,0,0,.22.24Z"/><path class="cls-3" d="M54.93,7.55a.24.24,0,1,0-.24-.24h0a.23.23,0,0,0,.23.23Z"/><path class="cls-3" d="M55.55,7.67a.23.23,0,0,0,0-.46h0a.23.23,0,0,0,0,.46Z"/><path class="cls-3" d="M54.63,7.5a.23.23,0,0,0,.24-.22h0A.24.24,0,0,0,54.63,7a.23.23,0,0,0-.23.23h0a.23.23,0,0,0,.23.23Z"/><polygon class="cls-3" points="55.15 6.41 55.41 27.88 56.27 27.96 55.62 6.45 55.15 6.41"/><path class="cls-4" d="M119.92,24.45a1,1,0,1,1-1-1A1,1,0,0,1,119.92,24.45Z"/></svg>